<svg width="30" height="22" viewBox="0 0 30 22" fill="none" xmlns="http://www.w3.org/2000/svg">
<path d="M7.49212 21.4875C5.43571 21.4875 3.67851 20.8054 2.22049 19.4413C0.76248 18.0772 0.0339251 16.41 0.034829 14.4396C0.034829 12.7507 0.565878 11.2459 1.62798 9.92508C2.69008 8.60428 4.07984 7.75983 5.79728 7.39174C6.18144 5.83277 7.14185 4.34958 8.67851 2.94217C10.2152 1.53476 11.8535 0.831055 13.5935 0.831055C14.3393 0.831055 14.9779 1.08569 15.5094 1.59495C16.0409 2.10422 16.3062 2.71568 16.3053 3.42935V11.2892L18.4747 9.2755L20.3729 11.0943L14.9494 16.2909L9.52593 11.0943L11.4241 9.2755L13.5935 11.2892V3.42935C11.8761 3.73248 10.5428 4.52842 9.59372 5.81718C8.64461 7.10593 8.17005 8.43193 8.17005 9.79516H7.49212C6.18144 9.79516 5.06285 10.239 4.13634 11.1268C3.20983 12.0145 2.74657 13.0863 2.74657 14.3422C2.74657 15.598 3.20983 16.6698 4.13634 17.5576C5.06285 18.4453 6.18144 18.8892 7.49212 18.8892H23.7626C24.7117 18.8892 25.5139 18.5752 26.1692 17.9473C26.8246 17.3194 27.1522 16.5507 27.1522 15.6413C27.1522 14.7319 26.8246 13.9633 26.1692 13.3353C25.5139 12.7074 24.7117 12.3935 23.7626 12.3935H21.7288V9.79516C21.7288 8.75585 21.4802 7.78668 20.983 6.88767C20.4859 5.98866 19.8305 5.22563 19.017 4.59858V1.57806C20.6893 2.3359 22.0112 3.45663 22.9829 4.94025C23.9547 6.42388 24.4405 8.04218 24.4405 9.79516C25.9998 9.96838 27.2937 10.6128 28.3224 11.7283C29.351 12.8438 29.8649 14.1482 29.864 15.6413C29.864 17.2653 29.2706 18.6458 28.0837 19.783C26.8969 20.9202 25.4565 21.4883 23.7626 21.4875H7.49212Z" fill="#FF9A62"/>
</svg>
